<svg width="256" height="256" viewBox="0 0 256 256" xmlns="http://www.w3.org/2000/svg" fill="none">
  <defs>
    <linearGradient id="g" x1="0" y1="0" x2="1" y2="1">
      <stop offset="0%" stop-color="#F5D76E"/>
      <stop offset="50%" stop-color="#D4AF37"/>
      <stop offset="100%" stop-color="#B8860B"/>
    </linearGradient>
  </defs>
  <rect x="8" y="8" width="240" height="240" rx="48" fill="#0b0b0b"/>
  <g transform="translate(28,28)">
    <path d="M56 28v76c0 26 14 40 38 40 20 0 34-10 42-26l-18-10c-6 10-14 14-24 14-12 0-20-8-20-22V28H56z" fill="url(#g)"/>
    <path d="M148 28h-20v120h20c36 0 60-22 60-60s-24-60-60-60zm0 100V48c24 0 40 18 40 40s-16 40-40 40z" fill="url(#g)"/>
  </g>
</svg>
